<svg width="1305" height="911" viewBox="0 0 1305 911" fill="none" xmlns="http://www.w3.org/2000/svg">
<path d="M235.296 663.613C235.296 673.26 237.195 682.814 240.887 691.727C244.579 700.64 249.99 708.739 256.811 715.561C263.633 722.383 271.731 727.794 280.643 731.487C289.554 735.178 299.107 737.079 308.753 737.079L308.753 663.613L235.296 663.613Z" fill="white" fill-opacity="0.06"/>
<path d="M469.963 736.284C465.166 736.284 460.415 737.234 455.983 739.08C451.551 740.927 447.524 743.632 444.132 747.043C440.74 750.454 438.049 754.504 436.213 758.96C434.377 763.417 433.432 768.194 433.432 773.017C433.432 777.841 434.377 782.618 436.213 787.074C438.049 791.531 440.74 795.581 444.132 798.992C447.524 802.402 451.551 805.108 455.983 806.954C460.415 808.8 465.166 809.75 469.963 809.75L469.963 773.017L469.963 736.284Z" fill="white" fill-opacity="0.06"/>
<path d="M323.048 810.148C332.695 810.148 342.247 808.253 351.159 804.57C360.071 800.888 368.169 795.492 374.99 788.688C381.812 781.885 387.223 773.808 390.914 764.918C394.606 756.029 396.506 746.502 396.506 736.88C396.506 727.259 394.606 717.731 390.914 708.842C387.223 699.953 381.812 691.876 374.99 685.072C368.169 678.269 360.071 672.872 351.159 669.19C342.247 665.508 332.695 663.613 323.048 663.613L323.048 736.88L323.048 810.148Z" fill="white" fill-opacity="0.06"/>
<path d="M396.506 487.691C396.506 497.339 394.606 506.893 390.914 515.805C387.223 524.718 381.812 532.817 374.99 539.639C368.169 546.461 360.071 551.873 351.159 555.565C342.247 559.258 332.695 561.158 323.048 561.158L323.048 487.691L396.506 487.691Z" fill="white" fill-opacity="0.06"/>
<path d="M308.753 414.623C299.107 414.623 289.554 416.517 280.643 420.2C271.731 423.882 263.633 429.279 256.811 436.083C249.99 442.886 244.579 450.963 240.887 459.852C237.195 468.741 235.296 478.269 235.296 487.89C235.296 497.512 237.195 507.039 240.887 515.928C244.579 524.817 249.99 532.894 256.811 539.697C263.633 546.501 271.731 551.898 280.643 555.58C289.554 559.263 299.107 561.158 308.753 561.158L308.753 487.89L308.753 414.623Z" fill="white" fill-opacity="0.06"/>
<path d="M469.963 648.523C460.316 648.523 450.764 646.628 441.852 642.945C432.939 639.263 424.842 633.866 418.02 627.062C411.199 620.259 405.788 612.182 402.097 603.293C398.405 594.404 396.505 584.877 396.505 575.255C396.505 565.634 398.405 556.106 402.097 547.217C405.788 538.328 411.199 530.251 418.02 523.448C424.842 516.644 432.939 511.247 441.852 507.565C450.764 503.882 460.316 501.988 469.963 501.988L469.963 575.255L469.963 648.523Z" fill="white" fill-opacity="0.06"/>
<path d="M382.211 648.92C382.211 639.272 380.316 629.719 376.634 620.806C372.953 611.893 367.557 603.794 360.754 596.972C353.951 590.15 345.875 584.738 336.987 581.046C328.099 577.353 318.572 575.454 308.952 575.454C299.331 575.454 289.805 577.353 280.917 581.046C272.029 584.738 263.953 590.15 257.15 596.972C250.347 603.794 244.951 611.893 241.269 620.806C237.587 629.719 235.692 639.272 235.692 648.92L308.952 648.92L382.211 648.92Z" fill="white" fill-opacity="0.06"/>
<path d="M396.505 450.561C396.505 430.274 412.949 413.828 433.234 413.828L469.963 413.828L469.963 487.294L433.234 487.294C412.949 487.294 396.505 470.848 396.505 450.561Z" fill="white" fill-opacity="0.06"/>
<path d="M279.569 751.375C263.451 751.375 250.384 764.443 250.384 780.563C250.384 796.683 263.451 809.75 279.569 809.75C295.687 809.75 308.753 796.683 308.753 780.563C308.753 764.443 295.687 751.375 279.569 751.375Z" fill="white" fill-opacity="0.06"/>
<path d="M440.778 663.613C424.66 663.613 411.594 676.68 411.594 692.8C411.594 708.92 424.66 721.988 440.778 721.988C456.896 721.988 469.963 708.92 469.963 692.8C469.963 676.68 456.896 663.613 440.778 663.613Z" fill="white" fill-opacity="0.06"/>
<path d="M353.026 413.828C336.908 413.828 323.842 426.896 323.842 443.016C323.842 459.136 336.908 472.204 353.026 472.204C369.145 472.204 382.211 459.136 382.211 443.016C382.211 426.896 369.145 413.828 353.026 413.828Z" fill="white" fill-opacity="0.06"/>
<path d="M894.827 561.158C894.827 551.51 896.727 541.957 900.419 533.043C904.111 524.13 909.522 516.031 916.343 509.209C923.164 502.387 931.262 496.976 940.174 493.284C949.086 489.592 958.639 487.691 968.285 487.691L968.285 561.158L894.827 561.158Z" fill="white" fill-opacity="0.06"/>
<path d="M660.16 472.998C664.957 472.998 669.707 473.948 674.139 475.794C678.571 477.64 682.598 480.346 685.991 483.757C689.382 487.168 692.074 491.218 693.909 495.674C695.745 500.131 696.69 504.907 696.69 509.731C696.69 514.555 695.745 519.332 693.909 523.788C692.074 528.245 689.382 532.294 685.991 535.705C682.598 539.116 678.571 541.822 674.139 543.668C669.707 545.514 664.957 546.464 660.16 546.464L660.16 472.998Z" fill="white" fill-opacity="0.06"/>
<path d="M982.58 414.623C992.226 414.623 1001.78 416.518 1010.69 420.2C1019.6 423.882 1027.7 429.279 1034.52 436.082C1041.34 442.886 1046.75 450.963 1050.45 459.852C1054.14 468.741 1056.04 478.268 1056.04 487.89C1056.04 497.512 1054.14 507.039 1050.45 515.928C1046.75 524.817 1041.34 532.894 1034.52 539.698C1027.7 546.502 1019.6 551.898 1010.69 555.58C1001.78 559.262 992.226 561.158 982.58 561.158L982.58 414.623Z" fill="white" fill-opacity="0.06"/>
<path d="M806.678 414.623C806.678 424.27 804.783 433.824 801.101 442.737C797.419 451.65 792.023 459.749 785.22 466.571C778.417 473.393 770.341 478.804 761.453 482.497C752.565 486.189 743.039 488.089 733.418 488.089C723.798 488.089 714.271 486.189 705.384 482.497C696.496 478.804 688.42 473.393 681.617 466.571C674.814 459.749 669.418 451.65 665.736 442.737C662.054 433.824 660.159 424.27 660.159 414.623L806.678 414.623Z" fill="white" fill-opacity="0.06"/>
<path d="M499.346 631.844C499.346 622.196 501.241 612.643 504.923 603.73C508.605 594.817 514.001 586.718 520.804 579.896C527.607 573.074 535.683 567.663 544.571 563.97C553.459 560.278 562.985 558.378 572.606 558.378C582.226 558.378 591.753 560.278 600.641 563.97C609.528 567.663 617.604 573.074 624.407 579.896C631.21 586.718 636.606 594.817 640.288 603.73C643.971 612.643 645.865 622.196 645.865 631.844L499.346 631.844Z" fill="white" fill-opacity="0.06"/>
<path d="M645.865 561.158C636.219 561.158 626.666 559.263 617.754 555.581C608.842 551.898 600.744 546.502 593.923 539.698C587.102 532.895 581.691 524.818 577.999 515.928C574.307 507.039 572.407 497.512 572.407 487.89C572.407 478.269 574.307 468.741 577.999 459.852C581.691 450.963 587.102 442.886 593.923 436.082C600.744 429.279 608.842 423.882 617.754 420.2C626.666 416.518 636.219 414.623 645.865 414.623L645.865 561.158Z" fill="white" fill-opacity="0.06"/>
<path d="M718.925 649.316C718.925 658.964 717.031 668.517 713.349 677.43C709.667 686.343 704.27 694.442 697.467 701.264C690.665 708.086 682.588 713.498 673.701 717.19C664.813 720.883 655.286 722.782 645.666 722.782C636.045 722.782 626.519 720.883 617.631 717.19C608.743 713.498 600.667 708.086 593.864 701.264C587.061 694.442 581.665 686.343 577.983 677.43C574.301 668.517 572.406 658.964 572.406 649.316L718.925 649.316Z" fill="white" fill-opacity="0.06"/>
<path d="M733.617 561.158C733.617 551.51 735.511 541.957 739.193 533.043C742.875 524.13 748.272 516.031 755.074 509.209C761.877 502.387 769.953 496.976 778.841 493.284C787.729 489.592 797.256 487.692 806.876 487.692C816.497 487.692 826.023 489.592 834.911 493.284C843.799 496.976 851.875 502.387 858.678 509.209C865.481 516.031 870.877 524.13 874.559 533.043C878.241 541.957 880.135 551.51 880.135 561.158L733.617 561.158Z" fill="white" fill-opacity="0.06"/>
<path d="M733.617 649.316L807.075 649.316L807.075 722.782C797.428 722.782 787.876 720.883 778.964 717.19C770.052 713.498 761.954 708.086 755.133 701.264C748.311 694.442 742.9 686.343 739.208 677.43C735.516 668.517 733.617 658.964 733.617 649.316Z" fill="white" fill-opacity="0.06"/>
<path d="M484.655 810.545L484.655 737.079L558.113 737.079C558.113 746.726 556.213 756.28 552.521 765.193C548.829 774.106 543.418 782.205 536.597 789.027C529.775 795.849 521.677 801.26 512.766 804.953C503.854 808.645 494.301 810.545 484.655 810.545Z" fill="white" fill-opacity="0.06"/>
<path d="M733.617 634.623L660.16 634.623L660.16 561.157C669.806 561.157 679.359 563.057 688.27 566.75C697.182 570.442 705.28 575.854 712.102 582.676C718.923 589.498 724.334 597.597 728.026 606.509C731.718 615.422 733.617 624.976 733.617 634.623Z" fill="white" fill-opacity="0.06"/>
<path d="M558.113 488.089L484.655 488.089L484.655 414.623C494.301 414.623 503.854 416.523 512.766 420.215C521.677 423.907 529.775 429.318 536.597 436.14C543.418 442.962 548.829 451.061 552.521 459.974C556.213 468.888 558.113 478.441 558.113 488.089Z" fill="white" fill-opacity="0.06"/>
<path d="M858.098 488.089C837.813 488.089 821.369 471.643 821.369 451.356L821.369 414.623L894.827 414.623L894.827 451.356C894.827 471.643 878.382 488.089 858.098 488.089Z" fill="white" fill-opacity="0.06"/>
<path d="M558.113 686.05C558.113 706.337 541.668 722.783 521.384 722.783L484.655 722.783L484.655 649.317L521.384 649.317C541.668 649.317 558.113 665.763 558.113 686.05Z" fill="white" fill-opacity="0.06"/>
<path d="M939.101 472.998C922.982 472.998 909.916 459.931 909.916 443.81C909.916 427.69 922.982 414.623 939.101 414.623C955.219 414.623 968.285 427.69 968.285 443.81C968.285 459.931 955.219 472.998 939.101 472.998Z" fill="white" fill-opacity="0.06"/>
<path d="M777.493 634.226C761.375 634.226 748.309 621.159 748.309 605.039C748.309 588.919 761.375 575.851 777.493 575.851C793.611 575.851 806.678 588.919 806.678 605.039C806.678 621.159 793.611 634.226 777.493 634.226Z" fill="white" fill-opacity="0.06"/>
<path d="M513.839 560.76C497.721 560.76 484.654 547.693 484.654 531.573C484.654 515.453 497.721 502.385 513.839 502.385C529.957 502.385 543.023 515.453 543.023 531.573C543.023 547.693 529.957 560.76 513.839 560.76Z" fill="white" fill-opacity="0.06"/>
<path d="M1070.33 148.556C1070.33 138.908 1072.23 129.355 1075.92 120.442C1079.62 111.528 1085.03 103.43 1091.85 96.6078C1098.67 89.7857 1106.77 84.3744 1115.68 80.6823C1124.59 76.9903 1134.14 75.09 1143.79 75.09L1143.79 148.556L1070.33 148.556Z" fill="white" fill-opacity="0.06"/>
<path d="M835.664 60.3966C840.461 60.3966 845.212 61.3467 849.644 63.1927C854.076 65.0388 858.103 67.7445 861.496 71.1554C864.887 74.5664 867.579 78.6159 869.414 83.0725C871.249 87.5292 872.195 92.3058 872.195 97.1296C872.195 101.953 871.249 106.73 869.414 111.187C867.579 115.643 864.887 119.693 861.496 123.104C858.103 126.515 854.076 129.22 849.644 131.067C845.212 132.913 840.461 133.863 835.664 133.863L835.664 60.3966Z" fill="white" fill-opacity="0.06"/>
<path d="M996.874 324.478C1001.67 324.478 1006.42 325.429 1010.85 327.274C1015.29 329.119 1019.31 331.826 1022.71 335.236C1026.1 338.648 1028.79 342.697 1030.62 347.154C1032.46 351.61 1033.4 356.387 1033.4 361.211C1033.4 366.035 1032.46 370.811 1030.62 375.268C1028.79 379.724 1026.1 383.774 1022.71 387.186C1019.31 390.596 1015.29 393.302 1010.85 395.148C1006.42 396.993 1001.67 397.944 996.874 397.944L996.874 324.478Z" fill="white" fill-opacity="0.06"/>
<path d="M1305 75.4874C1300.2 75.4874 1295.45 74.5373 1291.02 72.6913C1286.59 70.8452 1282.56 68.1395 1279.17 64.7286C1275.78 61.3176 1273.09 57.2681 1271.25 52.8115C1269.41 48.3548 1268.47 43.5782 1268.47 38.7544C1268.47 33.9306 1269.41 29.154 1271.25 24.6972C1273.09 20.2406 1275.78 16.1912 1279.17 12.7802C1282.56 9.36924 1286.59 6.66351 1291.02 4.81749C1295.45 2.97149 1300.2 2.02135 1305 2.02135L1305 75.4874Z" fill="white" fill-opacity="0.06"/>
<path d="M1158.08 2.02116C1167.73 2.02116 1177.28 3.91628 1186.2 7.5983C1195.11 11.2804 1203.21 16.6771 1210.03 23.4808C1216.85 30.2842 1222.26 38.3611 1225.95 47.2503C1229.64 56.1396 1231.54 65.667 1231.54 75.2886C1231.54 84.9102 1229.64 94.4376 1225.95 103.327C1222.26 112.216 1216.85 120.293 1210.03 127.096C1203.21 133.9 1195.11 139.297 1186.2 142.979C1177.28 146.661 1167.73 148.556 1158.08 148.556L1158.08 2.02116Z" fill="white" fill-opacity="0.06"/>
<path d="M1231.54 324.874L1158.08 324.874L1158.08 251.408C1167.73 251.408 1177.28 253.308 1186.2 257.001C1195.11 260.693 1203.21 266.105 1210.03 272.927C1216.85 279.749 1222.26 287.848 1225.95 296.76C1229.64 305.673 1231.54 315.227 1231.54 324.874Z" fill="white" fill-opacity="0.06"/>
<path d="M1143.79 397.944C1134.14 397.944 1124.59 396.049 1115.68 392.367C1106.77 388.684 1098.67 383.287 1091.85 376.484C1085.03 369.68 1079.62 361.603 1075.92 352.714C1072.23 343.826 1070.33 334.298 1070.33 324.676C1070.33 315.055 1072.23 305.527 1075.92 296.638C1079.62 287.75 1085.03 279.673 1091.85 272.869C1098.67 266.065 1106.77 260.669 1115.68 256.986C1124.59 253.304 1134.14 251.409 1143.79 251.409L1143.79 397.944Z" fill="white" fill-opacity="0.06"/>
<path d="M982.183 2.02135C982.183 11.669 980.289 21.2223 976.607 30.1356C972.925 39.049 967.528 47.1477 960.725 53.9696C953.923 60.7917 945.846 66.203 936.959 69.8952C928.071 73.5871 918.544 75.4874 908.924 75.4874C899.303 75.4874 889.777 73.5871 880.889 69.8952C872.001 66.203 863.925 60.7917 857.122 53.9696C850.319 47.1477 844.923 39.049 841.241 30.1356C837.559 21.2223 835.664 11.6691 835.664 2.02136L982.183 2.02135Z" fill="white" fill-opacity="0.06"/>
<path d="M674.85 218.845C674.85 209.198 676.745 199.644 680.427 190.731C684.109 181.818 689.505 173.719 696.308 166.897C703.111 160.075 711.187 154.664 720.075 150.971C728.963 147.279 738.489 145.379 748.11 145.379C757.73 145.379 767.257 147.279 776.144 150.971C785.032 154.664 793.108 160.075 799.911 166.897C806.714 173.719 812.11 181.818 815.792 190.731C819.474 199.644 821.369 209.198 821.369 218.845L674.85 218.845Z" fill="white" fill-opacity="0.06"/>
<path d="M821.369 148.556C811.722 148.556 802.17 146.661 793.258 142.979C784.346 139.297 776.248 133.9 769.427 127.096C762.606 120.293 757.195 112.216 753.503 103.327C749.811 94.4376 747.911 84.9102 747.911 75.2886C747.911 65.667 749.811 56.1396 753.503 47.2503C757.195 38.3611 762.606 30.2842 769.427 23.4808C776.248 16.6771 784.346 11.2804 793.258 7.5983C802.17 3.91628 811.722 2.02116 821.369 2.02116L821.369 148.556Z" fill="white" fill-opacity="0.06"/>
<path d="M894.431 236.716C894.431 246.363 892.536 255.917 888.854 264.83C885.172 273.742 879.776 281.841 872.973 288.663C866.17 295.485 858.094 300.897 849.206 304.589C840.318 308.282 830.792 310.182 821.171 310.182C811.551 310.182 802.024 308.282 793.136 304.589C784.249 300.897 776.173 295.485 769.37 288.663C762.567 281.841 757.171 273.742 753.488 264.83C749.806 255.917 747.912 246.363 747.912 236.716L894.431 236.716Z" fill="white" fill-opacity="0.06"/>
<path d="M835.664 397.944C835.664 388.296 837.559 378.743 841.241 369.83C844.923 360.917 850.319 352.818 857.122 345.996C863.925 339.174 872.001 333.763 880.889 330.07C889.777 326.378 899.303 324.478 908.924 324.478C918.544 324.478 928.071 326.378 936.959 330.07C945.846 333.763 953.923 339.174 960.725 345.996C967.528 352.818 972.925 360.917 976.607 369.83C980.289 378.743 982.183 388.296 982.183 397.944L835.664 397.944Z" fill="white" fill-opacity="0.06"/>
<path d="M996.874 163.249C1006.52 163.249 1016.07 165.144 1024.99 168.827C1033.9 172.509 1042 177.906 1048.82 184.71C1055.64 191.513 1061.05 199.59 1064.74 208.479C1068.43 217.368 1070.33 226.895 1070.33 236.517C1070.33 246.138 1068.43 255.666 1064.74 264.555C1061.05 273.444 1055.64 281.521 1048.82 288.324C1042 295.128 1033.9 300.525 1024.99 304.207C1016.07 307.89 1006.52 309.784 996.874 309.784L996.874 163.249Z" fill="white" fill-opacity="0.06"/>
<path d="M1305 163.249L1305 309.784C1295.35 309.784 1285.8 307.89 1276.89 304.207C1267.98 300.525 1259.88 295.128 1253.06 288.324C1246.24 281.521 1240.83 273.444 1237.13 264.555C1233.44 255.666 1231.54 246.138 1231.54 236.517C1231.54 226.895 1233.44 217.368 1237.13 208.479C1240.83 199.59 1246.24 191.513 1253.06 184.709C1259.88 177.906 1267.98 172.509 1276.89 168.826C1285.8 165.144 1295.35 163.249 1305 163.249Z" fill="white" fill-opacity="0.06"/>
<path d="M1217.25 163.249C1217.25 172.897 1215.35 182.45 1211.67 191.363C1207.99 200.276 1202.59 208.375 1195.79 215.197C1188.99 222.019 1180.91 227.431 1172.02 231.123C1163.13 234.815 1153.61 236.715 1143.99 236.715C1134.37 236.715 1124.84 234.815 1115.95 231.123C1107.07 227.431 1098.99 222.019 1092.19 215.197C1085.38 208.375 1079.99 200.276 1076.3 191.363C1072.62 182.45 1070.73 172.897 1070.73 163.249L1217.25 163.249Z" fill="white" fill-opacity="0.06"/>
<path d="M909.122 148.556C909.122 138.908 911.016 129.355 914.698 120.442C918.38 111.528 923.777 103.43 930.579 96.6078C937.382 89.7857 945.458 84.3744 954.346 80.6823C963.234 76.9903 972.761 75.09 982.381 75.09C992.001 75.09 1001.53 76.9903 1010.42 80.6823C1019.3 84.3744 1027.38 89.7857 1034.18 96.6078C1040.99 103.43 1046.38 111.528 1050.06 120.442C1053.75 129.355 1055.64 138.908 1055.64 148.556L909.122 148.556Z" fill="white" fill-opacity="0.06"/>
<path d="M909.121 236.716L982.579 236.716L982.579 310.182C972.933 310.182 963.38 308.282 954.468 304.589C945.556 300.897 937.458 295.485 930.637 288.663C923.816 281.841 918.405 273.742 914.713 264.83C911.021 255.917 909.121 246.363 909.121 236.716Z" fill="white" fill-opacity="0.06"/>
<path d="M660.16 397.944L660.16 324.478L733.617 324.478C733.617 334.125 731.718 343.679 728.026 352.592C724.334 361.505 718.923 369.604 712.102 376.426C705.28 383.248 697.182 388.659 688.27 392.352C679.359 396.044 669.806 397.944 660.16 397.944Z" fill="white" fill-opacity="0.06"/>
<path d="M909.122 222.022L835.664 222.022L835.664 148.556C845.311 148.556 854.863 150.456 863.775 154.149C872.687 157.841 880.785 163.252 887.607 170.075C894.428 176.897 899.839 184.995 903.531 193.908C907.223 202.821 909.122 212.375 909.122 222.022Z" fill="white" fill-opacity="0.06"/>
<path d="M733.617 75.4874L660.16 75.4874L660.16 2.02136C669.806 2.02136 679.359 3.92162 688.27 7.61362C697.182 11.3056 705.28 16.7171 712.102 23.5391C718.923 30.361 724.334 38.4598 728.026 47.3731C731.718 56.2865 733.617 65.8397 733.617 75.4874Z" fill="white" fill-opacity="0.06"/>
<path d="M1033.6 75.4874C1013.32 75.4874 996.874 59.0414 996.874 38.7544L996.874 2.02135L1070.33 2.02135L1070.33 38.7544C1070.33 59.0414 1053.89 75.4874 1033.6 75.4874Z" fill="white" fill-opacity="0.06"/>
<path d="M821.369 361.211C821.369 381.498 804.925 397.944 784.64 397.944L747.911 397.944L747.911 324.478L784.64 324.478C804.925 324.478 821.369 340.924 821.369 361.211Z" fill="white" fill-opacity="0.06"/>
<path d="M733.617 273.448C733.617 293.735 717.173 310.181 696.889 310.181L660.16 310.181L660.16 236.715L696.888 236.715C717.173 236.715 733.617 253.162 733.617 273.448Z" fill="white" fill-opacity="0.06"/>
<path d="M1114.6 60.397C1098.49 60.397 1085.42 47.3292 1085.42 31.2092C1085.42 15.0892 1098.49 2.02131 1114.6 2.02131C1130.72 2.02131 1143.79 15.0892 1143.79 31.2092C1143.79 47.3292 1130.72 60.397 1114.6 60.397Z" fill="white" fill-opacity="0.06"/>
<path d="M1275.82 148.159C1259.7 148.159 1246.63 135.091 1246.63 118.971C1246.63 102.851 1259.7 89.7833 1275.82 89.7833C1291.93 89.7833 1305 102.851 1305 118.971C1305 135.091 1291.93 148.159 1275.82 148.159Z" fill="white" fill-opacity="0.06"/>
<path d="M952.998 221.625C936.88 221.625 923.814 208.557 923.814 192.437C923.814 176.317 936.88 163.25 952.998 163.25C969.117 163.25 982.183 176.317 982.183 192.437C982.183 208.557 969.117 221.625 952.998 221.625Z" fill="white" fill-opacity="0.06"/>
<path d="M689.344 148.159C673.226 148.159 660.159 135.091 660.159 118.971C660.159 102.851 673.226 89.7833 689.344 89.7833C705.462 89.7833 718.529 102.851 718.529 118.971C718.529 135.091 705.462 148.159 689.344 148.159Z" fill="white" fill-opacity="0.06"/>
<path d="M468.772 339.568C463.975 339.568 459.224 338.618 454.792 336.772C450.36 334.926 446.333 332.22 442.94 328.809C439.549 325.398 436.857 321.349 435.022 316.892C433.187 312.435 432.241 307.659 432.241 302.835C432.241 298.011 433.187 293.234 435.022 288.778C436.857 284.321 439.549 280.272 442.94 276.861C446.333 273.45 450.36 270.744 454.792 268.898C459.224 267.052 463.975 266.102 468.772 266.102L468.772 339.568Z" fill="white" fill-opacity="0.06"/>
<path d="M322.253 397.944C322.253 388.296 324.148 378.743 327.83 369.83C331.512 360.916 336.908 352.818 343.711 345.996C350.514 339.174 358.59 333.762 367.478 330.07C376.365 326.378 385.892 324.478 395.512 324.478C405.133 324.478 414.659 326.378 423.547 330.07C432.435 333.762 440.511 339.174 447.314 345.996C454.117 352.818 459.513 360.916 463.195 369.83C466.877 378.743 468.772 388.296 468.772 397.944L322.253 397.944Z" fill="white" fill-opacity="0.06"/>
<path d="M629.585 180.723C629.585 190.37 627.691 199.924 624.009 208.837C620.327 217.75 614.93 225.848 608.128 232.67C601.325 239.493 593.249 244.904 584.361 248.596C575.473 252.288 565.946 254.189 556.326 254.189C546.705 254.189 537.179 252.288 528.291 248.596C519.403 244.904 511.327 239.493 504.524 232.67C497.721 225.848 492.325 217.75 488.643 208.837C484.961 199.924 483.067 190.37 483.067 180.723L629.585 180.723Z" fill="white" fill-opacity="0.06"/>
<path d="M483.066 251.409C492.713 251.409 502.265 253.304 511.177 256.986C520.089 260.668 528.187 266.065 535.008 272.869C541.83 279.672 547.241 287.749 550.933 296.638C554.625 305.527 556.524 315.055 556.524 324.676C556.524 334.298 554.625 343.825 550.933 352.715C547.241 361.604 541.83 369.681 535.008 376.484C528.187 383.288 520.089 388.685 511.177 392.367C502.265 396.049 492.713 397.944 483.066 397.944L483.066 251.409Z" fill="white" fill-opacity="0.06"/>
<path d="M410.006 163.249C410.006 153.602 411.9 144.048 415.582 135.135C419.264 126.222 424.66 118.124 431.463 111.301C438.266 104.479 446.342 99.0679 455.23 95.3755C464.118 91.6831 473.644 89.7833 483.265 89.7833C492.885 89.7833 502.412 91.6831 511.3 95.3755C520.188 99.0679 528.264 104.479 535.067 111.301C541.869 118.124 547.266 126.222 550.948 135.135C554.63 144.048 556.524 153.602 556.524 163.249L410.006 163.249Z" fill="white" fill-opacity="0.06"/>
<path d="M468.772 2.02146C468.772 11.669 466.877 21.2225 463.195 30.1354C459.513 39.0483 454.117 47.1472 447.314 53.9693C440.511 60.7914 432.435 66.2029 423.547 69.8953C414.659 73.5877 405.133 75.4875 395.512 75.4875C385.892 75.4875 376.365 73.5877 367.478 69.8953C358.59 66.2029 350.514 60.7914 343.711 53.9693C336.908 47.1472 331.512 39.0483 327.83 30.1355C324.148 21.2226 322.253 11.669 322.253 2.02146L468.772 2.02146Z" fill="white" fill-opacity="0.06"/>
<path d="M307.164 236.318C297.518 236.318 287.965 234.424 279.053 230.741C270.142 227.059 262.044 221.662 255.222 214.858C248.401 208.055 242.99 199.978 239.298 191.089C235.606 182.2 233.706 172.672 233.706 163.051C233.706 153.429 235.606 143.902 239.298 135.013C242.99 126.124 248.401 118.047 255.222 111.244C262.044 104.44 270.142 99.0431 279.053 95.3606C287.965 91.6782 297.518 89.7835 307.164 89.7835L307.164 236.318Z" fill="white" fill-opacity="0.06"/>
<path d="M395.313 251.409C395.313 261.056 393.419 270.61 389.737 279.523C386.055 288.436 380.659 296.535 373.856 303.357C367.053 310.179 358.977 315.59 350.089 319.282C341.201 322.974 331.675 324.875 322.054 324.875C312.434 324.875 302.907 322.974 294.019 319.282C285.131 315.59 277.055 310.179 270.252 303.357C263.45 296.535 258.053 288.436 254.371 279.523C250.689 270.61 248.795 261.056 248.795 251.409L395.313 251.409Z" fill="white" fill-opacity="0.06"/>
<path d="M394.918 163.249L321.46 163.249L321.46 89.7833C331.106 89.7833 340.659 91.6831 349.571 95.3755C358.483 99.0679 366.581 104.479 373.402 111.301C380.223 118.124 385.634 126.222 389.326 135.135C393.018 144.048 394.918 153.602 394.918 163.249Z" fill="white" fill-opacity="0.06"/>
<path d="M644.276 2.02135L644.276 75.4874L570.818 75.4874C570.818 65.8398 572.718 56.2863 576.41 47.3734C580.102 38.4605 585.513 30.3616 592.334 23.5396C599.155 16.7175 607.253 11.306 616.165 7.61359C625.077 3.9212 634.63 2.02135 644.276 2.02135Z" fill="white" fill-opacity="0.06"/>
<path d="M395.314 177.942L468.772 177.942L468.772 251.408C459.125 251.408 449.573 249.509 440.661 245.816C431.749 242.124 423.651 236.712 416.83 229.89C410.008 223.068 404.597 214.969 400.905 206.056C397.213 197.144 395.314 187.59 395.314 177.942Z" fill="white" fill-opacity="0.06"/>
<path d="M570.818 324.478L644.276 324.478L644.276 397.944C634.63 397.944 625.077 396.044 616.165 392.352C607.253 388.66 599.155 383.248 592.334 376.426C585.513 369.604 580.102 361.505 576.41 352.592C572.718 343.679 570.818 334.126 570.818 324.478Z" fill="white" fill-opacity="0.06"/>
<path d="M270.435 324.478C290.72 324.478 307.164 340.924 307.164 361.211L307.164 397.944L233.706 397.944L233.706 361.211C233.706 340.924 250.151 324.478 270.435 324.478Z" fill="white" fill-opacity="0.06"/>
<path d="M483.066 38.7545C483.066 18.4676 499.511 2.02147 519.795 2.02147L556.524 2.02147L556.524 75.4875L519.795 75.4875C499.511 75.4875 483.066 59.0414 483.066 38.7545Z" fill="white" fill-opacity="0.06"/>
<path d="M233.016 36.7331C233.016 16.4461 249.461 3.88269e-05 269.745 3.8585e-05L306.474 3.8147e-05L306.474 73.4661L269.745 73.4661C249.461 73.4661 233.016 57.02 233.016 36.7331Z" fill="white" fill-opacity="0.06"/>
<path d="M570.818 126.516C570.818 106.229 587.263 89.7834 607.547 89.7834L644.276 89.7834L644.276 163.249L607.547 163.249C587.263 163.249 570.818 146.803 570.818 126.516Z" fill="white" fill-opacity="0.06"/>
<path d="M351.04 178.34C367.159 178.34 380.225 191.407 380.225 207.527C380.225 223.647 367.159 236.715 351.04 236.715C334.922 236.715 321.856 223.647 321.856 207.527C321.856 191.407 334.922 178.34 351.04 178.34Z" fill="white" fill-opacity="0.06"/>
<path d="M615.092 251.806C631.21 251.806 644.276 264.874 644.276 280.994C644.276 297.114 631.21 310.181 615.092 310.181C598.973 310.181 585.907 297.114 585.907 280.994C585.907 264.874 598.973 251.806 615.092 251.806Z" fill="white" fill-opacity="0.06"/>
<path d="M1.93949 148.54C11.587 148.54 21.1406 146.645 30.0535 142.963C38.9664 139.281 47.0653 133.885 53.8873 127.082C60.7094 120.279 66.1209 112.203 69.8133 103.315C73.5052 94.4276 75.4055 84.9009 75.4055 75.2805C75.4055 65.6601 73.5052 56.1335 69.8133 47.2457C66.1209 38.3578 60.7094 30.2817 53.8873 23.4789C47.0653 16.676 38.9664 11.2797 30.0535 7.5977C21.1406 3.91569 11.587 2.0212 1.93948 2.0212L1.93948 75.2805L1.93949 148.54Z" fill="white" fill-opacity="0.06"/>
<path d="M72.626 2.0212C72.626 11.6677 74.5211 21.2201 78.2031 30.1321C81.8852 39.044 87.282 47.142 94.0856 53.9633C100.889 60.7846 108.966 66.1955 117.855 69.8875C126.744 73.5794 136.272 75.4791 145.893 75.4791C155.515 75.4791 165.042 73.5794 173.932 69.8875C182.821 66.1955 190.898 60.7846 197.701 53.9633C204.505 47.142 209.902 39.044 213.584 30.1321C217.266 21.2201 219.161 11.6677 219.161 2.0212L145.893 2.0212L72.626 2.0212Z" fill="white" fill-opacity="0.06"/>
<path d="M145.297 89.7737C154.945 89.7737 164.498 91.6734 173.411 95.3653C182.325 99.0573 190.424 104.468 197.245 111.29C204.067 118.111 209.479 126.209 213.171 135.121C216.863 144.033 218.763 153.585 218.763 163.232L145.297 163.232L145.297 89.7737Z" fill="white" fill-opacity="0.06"/>
<path d="M72.626 134.047C72.626 150.165 85.6939 163.232 101.814 163.232C117.934 163.232 131.002 150.165 131.002 134.047C131.002 117.929 117.934 104.862 101.814 104.862C85.6939 104.862 72.626 117.929 72.626 134.047Z" fill="white" fill-opacity="0.06"/>
<path d="M145.297 837.058C145.297 841.856 146.247 846.606 148.093 851.038C149.939 855.47 152.645 859.497 156.056 862.889C159.467 866.282 163.516 868.972 167.973 870.808C172.43 872.644 177.206 873.589 182.03 873.589C186.854 873.589 191.631 872.644 196.087 870.808C200.544 868.972 204.593 866.282 208.004 862.889C211.415 859.497 214.121 855.47 215.967 851.038C217.813 846.606 218.763 841.856 218.763 837.058L182.03 837.058L145.297 837.058Z" fill="white" fill-opacity="0.06"/>
<path d="M57.5349 837.058C57.5349 846.705 55.6402 856.257 51.9578 865.17C48.2754 874.082 42.8785 882.18 36.0749 889.001C29.2713 895.822 21.1942 901.233 12.3054 904.925C3.41663 908.616 -6.11106 910.516 -15.7325 910.516C-25.354 910.516 -34.8817 908.616 -43.7705 904.925C-52.6593 901.233 -60.7364 895.822 -67.54 889.001C-74.3436 882.18 -79.7405 874.082 -83.4229 865.17C-87.1053 856.257 -89 846.705 -89 837.058L-15.7325 837.058L57.5349 837.058Z" fill="white" fill-opacity="0.06"/>
<path d="M72.6255 866.243C72.6255 882.361 85.6934 895.428 101.813 895.428C117.933 895.428 131.001 882.361 131.001 866.243C131.001 850.125 117.933 837.058 101.813 837.058C85.6934 837.058 72.6255 850.125 72.6255 866.243Z" fill="white" fill-opacity="0.06"/>
<path d="M146.092 485.652C146.092 480.855 147.042 476.104 148.888 471.672C150.733 467.24 153.44 463.213 156.85 459.82C160.262 456.429 164.311 453.737 168.768 451.902C173.224 450.067 178.001 449.121 182.825 449.121C187.649 449.121 192.425 450.067 196.882 451.902C201.338 453.737 205.388 456.429 208.799 459.82C212.21 463.213 214.916 467.24 216.762 471.672C218.607 476.104 219.558 480.855 219.558 485.652L146.092 485.652Z" fill="white" fill-opacity="0.06"/>
<path d="M146.092 250.984L146.092 324.442L72.626 324.442C72.626 314.795 74.5258 305.243 78.2182 296.33C81.9107 287.418 87.3222 279.32 94.1442 272.499C100.966 265.678 109.065 260.267 117.978 256.575C126.891 252.884 136.444 250.984 146.092 250.984Z" fill="white" fill-opacity="0.06"/>
<path d="M219.161 338.736C219.161 348.383 217.266 357.935 213.584 366.847C209.901 375.759 204.504 383.857 197.701 390.678C190.897 397.5 182.82 402.91 173.931 406.602C165.043 410.294 155.515 412.194 145.893 412.194C136.272 412.194 126.744 410.294 117.855 406.602C108.967 402.91 100.89 397.5 94.086 390.678C87.2824 383.857 81.8855 375.759 78.2031 366.847C74.5207 357.935 72.626 348.383 72.626 338.736L219.161 338.736Z" fill="white" fill-opacity="0.06"/>
<path d="M40.856 807.675C31.2084 807.675 21.6549 805.781 12.742 802.099C3.82908 798.417 -4.26982 793.021 -11.0919 786.218C-17.9139 779.415 -23.3254 771.339 -27.0178 762.451C-30.7098 753.563 -32.6101 744.036 -32.6101 734.416C-32.6101 724.796 -30.7098 715.269 -27.0178 706.381C-23.3254 697.493 -17.9139 689.417 -11.0919 682.614C-4.26982 675.811 3.82908 670.415 12.742 666.733C21.6549 663.051 31.2084 661.157 40.856 661.157L40.856 807.675Z" fill="white" fill-opacity="0.06"/>
<path d="M58.3296 588.096C67.9772 588.096 77.5307 589.991 86.4436 593.673C95.3565 597.355 103.455 602.751 110.277 609.554C117.1 616.357 122.511 624.433 126.203 633.321C129.896 642.209 131.796 651.735 131.796 661.356C131.796 670.976 129.896 680.503 126.203 689.39C122.511 698.278 117.1 706.354 110.277 713.157C103.455 719.96 95.3565 725.356 86.4436 729.038C77.5307 732.72 67.9772 734.615 58.3296 734.615L58.3296 588.096Z" fill="white" fill-opacity="0.06"/>
<path d="M219.558 646.862C209.91 646.862 200.357 644.968 191.444 641.286C182.531 637.604 174.432 632.208 167.61 625.405C160.788 618.602 155.376 610.526 151.684 601.638C147.992 592.75 146.092 583.223 146.092 573.603C146.092 563.983 147.992 554.456 151.684 545.568C155.376 536.68 160.788 528.604 167.61 521.801C174.432 514.998 182.531 509.602 191.444 505.92C200.357 502.238 209.91 500.344 219.558 500.344L219.558 646.862Z" fill="white" fill-opacity="0.06"/>
<path d="M-14.7393 485.652C-14.7393 476.006 -12.8446 466.453 -9.16215 457.541C-5.47972 448.629 -0.0828396 440.531 6.72077 433.71C13.5244 426.889 21.6014 421.478 30.4902 417.786C39.379 414.094 48.9067 412.194 58.5282 412.194C68.1497 412.194 77.6774 414.094 86.5662 417.786C95.455 421.478 103.532 426.889 110.336 433.71C117.139 440.531 122.536 448.629 126.219 457.541C129.901 466.453 131.796 476.006 131.796 485.652L-14.7393 485.652Z" fill="white" fill-opacity="0.06"/>
<path d="M-14.7393 177.525L131.796 177.525C131.796 187.172 129.901 196.724 126.219 205.637C122.536 214.549 117.139 222.647 110.336 229.468C103.532 236.289 95.455 241.7 86.5662 245.392C77.6774 249.083 68.1497 250.983 58.5282 250.983C48.9067 250.983 39.379 249.083 30.4902 245.392C21.6014 241.7 13.5244 236.289 6.72077 229.468C-0.0828394 222.647 -5.47972 214.549 -9.16215 205.637C-12.8446 196.724 -14.7393 187.172 -14.7393 177.525Z" fill="white" fill-opacity="0.06"/>
<path d="M-15.1371 265.278C-5.48949 265.278 4.06403 267.173 12.9769 270.855C21.8898 274.536 29.9887 279.932 36.8108 286.735C43.6328 293.538 49.0443 301.614 52.7367 310.502C56.4291 319.391 58.329 328.917 58.329 338.537C58.329 348.158 56.4291 357.684 52.7367 366.572C49.0443 375.46 43.6328 383.536 36.8108 390.339C29.9887 397.142 21.8898 402.538 12.9769 406.22C4.06404 409.902 -5.48949 411.797 -15.1371 411.797L-15.1371 265.278Z" fill="white" fill-opacity="0.06"/>
<path d="M58.3296 573.404L58.3296 499.946L131.796 499.946C131.796 509.593 129.896 519.145 126.203 528.057C122.511 536.969 117.1 545.067 110.277 551.888C103.455 558.709 95.3565 564.12 86.4436 567.812C77.5307 571.504 67.9772 573.404 58.3296 573.404Z" fill="white" fill-opacity="0.06"/>
<path d="M219.558 822.367L146.092 822.367L146.092 748.909C155.739 748.909 165.293 750.809 174.206 754.501C183.119 758.193 191.218 763.604 198.04 770.425C204.862 777.246 210.273 785.344 213.966 794.256C217.658 803.168 219.558 812.72 219.558 822.367Z" fill="white" fill-opacity="0.06"/>
<path d="M43.636 573.404L43.636 646.862L-29.83 646.862C-29.83 637.216 -27.9302 627.663 -24.2378 618.751C-20.5454 609.839 -15.1339 601.741 -8.31184 594.92C-1.48979 588.099 6.60911 582.688 15.522 578.996C24.4349 575.304 33.9884 573.404 43.636 573.404Z" fill="white" fill-opacity="0.06"/>
<path d="M182.825 250.983C162.538 250.983 146.092 234.539 146.092 214.254L146.092 177.525L219.558 177.525L219.558 214.254C219.558 234.539 203.112 250.983 182.825 250.983Z" fill="white" fill-opacity="0.06"/>
<path d="M182.825 661.157C203.112 661.157 219.558 677.601 219.558 697.886L219.558 734.615L146.092 734.615L146.092 697.886C146.092 677.601 162.538 661.157 182.825 661.157Z" fill="white" fill-opacity="0.06"/>
<path d="M95.0626 748.909C115.35 748.909 131.796 765.353 131.796 785.638L131.796 822.367L58.3296 822.367L58.3296 785.638C58.3296 765.353 74.7757 748.909 95.0626 748.909Z" fill="white" fill-opacity="0.06"/>
<path d="M219.558 294.463C219.558 310.581 206.49 323.647 190.37 323.647C174.25 323.647 161.182 310.581 161.182 294.463C161.182 278.345 174.25 265.278 190.37 265.278C206.49 265.278 219.558 278.344 219.558 294.463Z" fill="white" fill-opacity="0.06"/>
<path d="M43.2391 529.528C43.2391 545.647 30.1713 558.713 14.0513 558.713C-2.06872 558.713 -15.1366 545.647 -15.1366 529.528C-15.1366 513.41 -2.06872 500.344 14.0513 500.344C30.1713 500.344 43.2391 513.41 43.2391 529.528Z" fill="white" fill-opacity="0.06"/>
</svg>
