<svg width="270" height="160" viewBox="0 0 270 160" fill="none" xmlns="http://www.w3.org/2000/svg">
<path d="M99.9097 160C93.3317 160 86.8182 158.705 80.741 156.188C74.6638 153.67 69.1419 149.981 64.4907 145.33C59.8393 140.679 56.1498 135.158 53.6324 129.082C51.1152 123.006 49.8196 116.493 49.8196 109.916L99.9097 109.916L99.9097 160Z" fill="white" fill-opacity="0.06"/>
<path d="M50.0908 0C50.0908 3.27082 49.4431 6.50962 48.1844 9.53146C46.9257 12.5533 45.0809 15.299 42.7553 17.6119C40.4296 19.9247 37.6687 21.7593 34.6301 23.011C31.5914 24.2627 28.3347 24.9069 25.0458 24.9069C21.7569 24.9069 18.5001 24.2627 15.4614 23.011C12.4229 21.7593 9.66189 19.9247 7.33624 17.6119C5.0106 15.299 3.16579 12.5533 1.90716 9.53146C0.648529 6.50962 0.000717163 3.27082 0.000717163 0L50.0908 0Z" fill="white" fill-opacity="0.06"/>
<path d="M0.000228882 100.169C0.000228882 93.5918 1.29234 87.079 3.8028 81.0025C6.31326 74.926 9.99287 69.4047 14.6317 64.7539C19.2704 60.1031 24.7773 56.414 30.8381 53.8969C36.8989 51.38 43.3948 50.0845 49.9549 50.0845C56.5151 50.0845 63.011 51.38 69.0718 53.8969C75.1325 56.414 80.6395 60.1031 85.2782 64.7539C89.917 69.4047 93.5966 74.926 96.1071 81.0025C98.6175 87.079 99.9097 93.5918 99.9097 100.169L0.000228882 100.169Z" fill="white" fill-opacity="0.06"/>
<path d="M220.125 50.0845V100.169H170.035C170.035 93.5918 171.331 87.079 173.848 81.0025C176.366 74.926 180.055 69.4047 184.707 64.7539C189.358 60.1031 194.88 56.414 200.957 53.8969C207.034 51.38 213.548 50.0845 220.125 50.0845Z" fill="white" fill-opacity="0.06"/>
<path d="M269.946 109.916C269.946 116.493 268.654 123.006 266.143 129.082C263.633 135.158 259.953 140.679 255.314 145.33C250.675 149.981 245.168 153.67 239.108 156.188C233.047 158.705 226.551 160 219.991 160C213.431 160 206.935 158.705 200.874 156.188C194.814 153.67 189.307 149.981 184.668 145.33C180.029 140.679 176.35 135.158 173.839 129.082C171.328 123.006 170.036 116.493 170.036 109.916L269.946 109.916Z" fill="white" fill-opacity="0.06"/>
<path d="M109.928 0L209.837 0C209.837 6.57721 208.546 13.09 206.035 19.1665C203.524 25.2431 199.844 30.7643 195.206 35.4152C190.567 40.0659 185.06 43.7551 178.999 46.2721C172.939 48.789 166.443 50.0845 159.883 50.0845C153.323 50.0845 146.827 48.789 140.766 46.2721C134.705 43.7551 129.198 40.0659 124.56 35.4151C119.921 30.7643 116.241 25.2431 113.731 19.1665C111.22 13.09 109.928 6.5772 109.928 0Z" fill="white" fill-opacity="0.06"/>
<path d="M109.928 59.8311C116.506 59.8311 123.02 61.123 129.096 63.6332C135.173 66.1434 140.695 69.8226 145.347 74.4609C149.998 79.099 153.688 84.6054 156.205 90.6655C158.723 96.7256 160.018 103.221 160.018 109.78C160.018 116.34 158.723 122.835 156.205 128.895C153.688 134.955 149.998 140.461 145.347 145.099C140.695 149.738 135.173 153.417 129.096 155.927C123.02 158.438 116.506 159.729 109.928 159.729L109.928 59.8311Z" fill="white" fill-opacity="0.06"/>
<path d="M39.8013 129.814C39.8013 140.804 30.8914 149.712 19.9006 149.712C8.90977 149.712 -5.34058e-05 140.804 -5.34058e-05 129.814C-5.34058e-05 118.824 8.90977 109.916 19.9006 109.916C30.8914 109.916 39.8013 118.824 39.8013 129.814Z" fill="white" fill-opacity="0.06"/>
<path d="M99.6392 19.8984C99.6392 30.8881 90.7293 39.7969 79.7385 39.7969C68.7477 39.7969 59.8378 30.8881 59.8378 19.8984C59.8378 8.90884 68.7477 0 79.7385 0C90.7293 0 99.6392 8.90884 99.6392 19.8984Z" fill="white" fill-opacity="0.06"/>
</svg>
